<mxfile host="app.diagrams.net" modified="2024-03-18T08:33:59.502Z" agent="Mozilla/5.0 (Windows NT 10.0; Win64; x64) AppleWebKit/537.36 (KHTML, like Gecko) Chrome/122.0.0.0 Safari/537.36" etag="8M_wFK60c0SbJeJjpoPY" version="24.0.4" type="device">
  <diagram id="C5RBs43oDa-KdzZeNtuy" name="Page-1">
    <mxGraphModel dx="1687" dy="918" grid="1" gridSize="10" guides="1" tooltips="1" connect="1" arrows="1" fold="1" page="1" pageScale="1" pageWidth="827" pageHeight="1169" math="0" shadow="0">
      <root>
        <mxCell id="WIyWlLk6GJQsqaUBKTNV-0" />
        <mxCell id="WIyWlLk6GJQsqaUBKTNV-1" parent="WIyWlLk6GJQsqaUBKTNV-0" />
        <mxCell id="TGFiXmm4ck-HfC6BKN8_-37" value="" style="rounded=0;whiteSpace=wrap;html=1;" vertex="1" parent="WIyWlLk6GJQsqaUBKTNV-1">
          <mxGeometry x="20" y="105" width="760" height="855" as="geometry" />
        </mxCell>
        <mxCell id="TGFiXmm4ck-HfC6BKN8_-33" value="" style="rounded=0;whiteSpace=wrap;html=1;" vertex="1" parent="WIyWlLk6GJQsqaUBKTNV-1">
          <mxGeometry x="570" y="150" width="180" height="490" as="geometry" />
        </mxCell>
        <mxCell id="TGFiXmm4ck-HfC6BKN8_-32" value="" style="rounded=0;whiteSpace=wrap;html=1;" vertex="1" parent="WIyWlLk6GJQsqaUBKTNV-1">
          <mxGeometry x="289" y="150" width="220" height="780" as="geometry" />
        </mxCell>
        <mxCell id="TGFiXmm4ck-HfC6BKN8_-31" value="" style="rounded=0;whiteSpace=wrap;html=1;" vertex="1" parent="WIyWlLk6GJQsqaUBKTNV-1">
          <mxGeometry x="40" y="150" width="190" height="620" as="geometry" />
        </mxCell>
        <mxCell id="TGFiXmm4ck-HfC6BKN8_-4" value="" style="edgeStyle=orthogonalEdgeStyle;rounded=0;orthogonalLoop=1;jettySize=auto;html=1;" edge="1" parent="WIyWlLk6GJQsqaUBKTNV-1" source="TGFiXmm4ck-HfC6BKN8_-0" target="TGFiXmm4ck-HfC6BKN8_-3">
          <mxGeometry relative="1" as="geometry" />
        </mxCell>
        <mxCell id="TGFiXmm4ck-HfC6BKN8_-0" value="클라 시작" style="rounded=0;whiteSpace=wrap;html=1;fontSize=18;" vertex="1" parent="WIyWlLk6GJQsqaUBKTNV-1">
          <mxGeometry x="69" y="180" width="120" height="60" as="geometry" />
        </mxCell>
        <mxCell id="TGFiXmm4ck-HfC6BKN8_-10" value="" style="edgeStyle=orthogonalEdgeStyle;rounded=0;orthogonalLoop=1;jettySize=auto;html=1;" edge="1" parent="WIyWlLk6GJQsqaUBKTNV-1" source="TGFiXmm4ck-HfC6BKN8_-1" target="TGFiXmm4ck-HfC6BKN8_-9">
          <mxGeometry relative="1" as="geometry" />
        </mxCell>
        <mxCell id="TGFiXmm4ck-HfC6BKN8_-1" value="서버 시작" style="rounded=0;whiteSpace=wrap;html=1;fontSize=18;" vertex="1" parent="WIyWlLk6GJQsqaUBKTNV-1">
          <mxGeometry x="338" y="180" width="120" height="60" as="geometry" />
        </mxCell>
        <mxCell id="TGFiXmm4ck-HfC6BKN8_-20" value="" style="edgeStyle=orthogonalEdgeStyle;rounded=0;orthogonalLoop=1;jettySize=auto;html=1;" edge="1" parent="WIyWlLk6GJQsqaUBKTNV-1" source="TGFiXmm4ck-HfC6BKN8_-2" target="TGFiXmm4ck-HfC6BKN8_-19">
          <mxGeometry relative="1" as="geometry" />
        </mxCell>
        <mxCell id="TGFiXmm4ck-HfC6BKN8_-2" value="인공지능 시작" style="rounded=0;whiteSpace=wrap;html=1;fontSize=18;" vertex="1" parent="WIyWlLk6GJQsqaUBKTNV-1">
          <mxGeometry x="599" y="180" width="120" height="60" as="geometry" />
        </mxCell>
        <mxCell id="TGFiXmm4ck-HfC6BKN8_-6" value="" style="edgeStyle=orthogonalEdgeStyle;rounded=0;orthogonalLoop=1;jettySize=auto;html=1;" edge="1" parent="WIyWlLk6GJQsqaUBKTNV-1" source="TGFiXmm4ck-HfC6BKN8_-3" target="TGFiXmm4ck-HfC6BKN8_-5">
          <mxGeometry relative="1" as="geometry" />
        </mxCell>
        <mxCell id="TGFiXmm4ck-HfC6BKN8_-3" value="화면 캡쳐/저장" style="whiteSpace=wrap;html=1;rounded=0;fontSize=18;" vertex="1" parent="WIyWlLk6GJQsqaUBKTNV-1">
          <mxGeometry x="69" y="290" width="120" height="60" as="geometry" />
        </mxCell>
        <mxCell id="TGFiXmm4ck-HfC6BKN8_-26" style="edgeStyle=orthogonalEdgeStyle;rounded=0;orthogonalLoop=1;jettySize=auto;html=1;entryX=0;entryY=0.5;entryDx=0;entryDy=0;" edge="1" parent="WIyWlLk6GJQsqaUBKTNV-1" source="TGFiXmm4ck-HfC6BKN8_-5" target="TGFiXmm4ck-HfC6BKN8_-9">
          <mxGeometry relative="1" as="geometry" />
        </mxCell>
        <mxCell id="TGFiXmm4ck-HfC6BKN8_-5" value="서버로 전송" style="whiteSpace=wrap;html=1;rounded=0;fontSize=18;" vertex="1" parent="WIyWlLk6GJQsqaUBKTNV-1">
          <mxGeometry x="69" y="400" width="120" height="60" as="geometry" />
        </mxCell>
        <mxCell id="TGFiXmm4ck-HfC6BKN8_-7" value="결과 표시" style="whiteSpace=wrap;html=1;rounded=0;fontSize=18;" vertex="1" parent="WIyWlLk6GJQsqaUBKTNV-1">
          <mxGeometry x="69" y="510" width="120" height="60" as="geometry" />
        </mxCell>
        <mxCell id="TGFiXmm4ck-HfC6BKN8_-12" value="" style="edgeStyle=orthogonalEdgeStyle;rounded=0;orthogonalLoop=1;jettySize=auto;html=1;" edge="1" parent="WIyWlLk6GJQsqaUBKTNV-1" source="TGFiXmm4ck-HfC6BKN8_-9" target="TGFiXmm4ck-HfC6BKN8_-11">
          <mxGeometry relative="1" as="geometry" />
        </mxCell>
        <mxCell id="TGFiXmm4ck-HfC6BKN8_-9" value="이미지 수신" style="whiteSpace=wrap;html=1;rounded=0;fontSize=18;" vertex="1" parent="WIyWlLk6GJQsqaUBKTNV-1">
          <mxGeometry x="338" y="290" width="120" height="60" as="geometry" />
        </mxCell>
        <mxCell id="TGFiXmm4ck-HfC6BKN8_-28" value="" style="edgeStyle=orthogonalEdgeStyle;rounded=0;orthogonalLoop=1;jettySize=auto;html=1;" edge="1" parent="WIyWlLk6GJQsqaUBKTNV-1" source="TGFiXmm4ck-HfC6BKN8_-11" target="TGFiXmm4ck-HfC6BKN8_-27">
          <mxGeometry relative="1" as="geometry" />
        </mxCell>
        <mxCell id="TGFiXmm4ck-HfC6BKN8_-11" value="화면 처리" style="whiteSpace=wrap;html=1;rounded=0;fontSize=18;" vertex="1" parent="WIyWlLk6GJQsqaUBKTNV-1">
          <mxGeometry x="338" y="400" width="120" height="60" as="geometry" />
        </mxCell>
        <mxCell id="TGFiXmm4ck-HfC6BKN8_-16" value="" style="edgeStyle=orthogonalEdgeStyle;rounded=0;orthogonalLoop=1;jettySize=auto;html=1;" edge="1" parent="WIyWlLk6GJQsqaUBKTNV-1" source="TGFiXmm4ck-HfC6BKN8_-13" target="TGFiXmm4ck-HfC6BKN8_-15">
          <mxGeometry relative="1" as="geometry" />
        </mxCell>
        <mxCell id="TGFiXmm4ck-HfC6BKN8_-13" value="결과 수신" style="whiteSpace=wrap;html=1;rounded=0;fontSize=18;" vertex="1" parent="WIyWlLk6GJQsqaUBKTNV-1">
          <mxGeometry x="338" y="620" width="120" height="60" as="geometry" />
        </mxCell>
        <mxCell id="TGFiXmm4ck-HfC6BKN8_-18" value="" style="edgeStyle=orthogonalEdgeStyle;rounded=0;orthogonalLoop=1;jettySize=auto;html=1;" edge="1" parent="WIyWlLk6GJQsqaUBKTNV-1" source="TGFiXmm4ck-HfC6BKN8_-15" target="TGFiXmm4ck-HfC6BKN8_-17">
          <mxGeometry relative="1" as="geometry" />
        </mxCell>
        <mxCell id="TGFiXmm4ck-HfC6BKN8_-15" value="&lt;div&gt;이미지, 결과&lt;br&gt;&lt;/div&gt;&lt;div&gt;DB에 저장&lt;br&gt;&lt;/div&gt;" style="whiteSpace=wrap;html=1;rounded=0;fontSize=18;" vertex="1" parent="WIyWlLk6GJQsqaUBKTNV-1">
          <mxGeometry x="338" y="730" width="120" height="60" as="geometry" />
        </mxCell>
        <mxCell id="TGFiXmm4ck-HfC6BKN8_-46" style="edgeStyle=orthogonalEdgeStyle;rounded=0;orthogonalLoop=1;jettySize=auto;html=1;entryX=1;entryY=0.5;entryDx=0;entryDy=0;" edge="1" parent="WIyWlLk6GJQsqaUBKTNV-1" source="TGFiXmm4ck-HfC6BKN8_-17" target="TGFiXmm4ck-HfC6BKN8_-7">
          <mxGeometry relative="1" as="geometry" />
        </mxCell>
        <mxCell id="TGFiXmm4ck-HfC6BKN8_-17" value="클라이언트로&amp;nbsp;&lt;div style=&quot;font-size: 18px;&quot;&gt;결과 전송&lt;/div&gt;" style="whiteSpace=wrap;html=1;rounded=0;fontSize=18;" vertex="1" parent="WIyWlLk6GJQsqaUBKTNV-1">
          <mxGeometry x="338" y="840" width="120" height="60" as="geometry" />
        </mxCell>
        <mxCell id="TGFiXmm4ck-HfC6BKN8_-22" value="" style="edgeStyle=orthogonalEdgeStyle;rounded=0;orthogonalLoop=1;jettySize=auto;html=1;" edge="1" parent="WIyWlLk6GJQsqaUBKTNV-1" source="TGFiXmm4ck-HfC6BKN8_-19" target="TGFiXmm4ck-HfC6BKN8_-21">
          <mxGeometry relative="1" as="geometry" />
        </mxCell>
        <mxCell id="TGFiXmm4ck-HfC6BKN8_-19" value="서버로 부터&amp;nbsp;&lt;div style=&quot;font-size: 18px;&quot;&gt;이미지 수신&lt;/div&gt;" style="whiteSpace=wrap;html=1;rounded=0;fontSize=18;" vertex="1" parent="WIyWlLk6GJQsqaUBKTNV-1">
          <mxGeometry x="599" y="290" width="120" height="60" as="geometry" />
        </mxCell>
        <mxCell id="TGFiXmm4ck-HfC6BKN8_-24" value="" style="edgeStyle=orthogonalEdgeStyle;rounded=0;orthogonalLoop=1;jettySize=auto;html=1;" edge="1" parent="WIyWlLk6GJQsqaUBKTNV-1" source="TGFiXmm4ck-HfC6BKN8_-21" target="TGFiXmm4ck-HfC6BKN8_-23">
          <mxGeometry relative="1" as="geometry" />
        </mxCell>
        <mxCell id="TGFiXmm4ck-HfC6BKN8_-21" value="판별" style="whiteSpace=wrap;html=1;rounded=0;fontSize=18;" vertex="1" parent="WIyWlLk6GJQsqaUBKTNV-1">
          <mxGeometry x="599" y="400" width="120" height="60" as="geometry" />
        </mxCell>
        <mxCell id="TGFiXmm4ck-HfC6BKN8_-25" style="edgeStyle=orthogonalEdgeStyle;rounded=0;orthogonalLoop=1;jettySize=auto;html=1;exitX=0.5;exitY=1;exitDx=0;exitDy=0;" edge="1" parent="WIyWlLk6GJQsqaUBKTNV-1" source="TGFiXmm4ck-HfC6BKN8_-23" target="TGFiXmm4ck-HfC6BKN8_-13">
          <mxGeometry relative="1" as="geometry">
            <Array as="points">
              <mxPoint x="659" y="590" />
              <mxPoint x="398" y="590" />
            </Array>
          </mxGeometry>
        </mxCell>
        <mxCell id="TGFiXmm4ck-HfC6BKN8_-23" value="결과 서버로&lt;div&gt;&amp;nbsp;송신&lt;/div&gt;" style="whiteSpace=wrap;html=1;rounded=0;fontSize=18;" vertex="1" parent="WIyWlLk6GJQsqaUBKTNV-1">
          <mxGeometry x="599" y="510" width="120" height="60" as="geometry" />
        </mxCell>
        <mxCell id="TGFiXmm4ck-HfC6BKN8_-29" style="edgeStyle=orthogonalEdgeStyle;rounded=0;orthogonalLoop=1;jettySize=auto;html=1;entryX=0;entryY=0.5;entryDx=0;entryDy=0;" edge="1" parent="WIyWlLk6GJQsqaUBKTNV-1" source="TGFiXmm4ck-HfC6BKN8_-27" target="TGFiXmm4ck-HfC6BKN8_-19">
          <mxGeometry relative="1" as="geometry" />
        </mxCell>
        <mxCell id="TGFiXmm4ck-HfC6BKN8_-27" value="인공지능으로&lt;div style=&quot;font-size: 18px;&quot;&gt;이미지 송신&lt;/div&gt;" style="whiteSpace=wrap;html=1;rounded=0;fontSize=18;" vertex="1" parent="WIyWlLk6GJQsqaUBKTNV-1">
          <mxGeometry x="338" y="510" width="120" height="60" as="geometry" />
        </mxCell>
        <mxCell id="TGFiXmm4ck-HfC6BKN8_-34" value="클라이언트" style="text;html=1;align=center;verticalAlign=middle;resizable=0;points=[];autosize=1;strokeColor=none;fillColor=none;fontSize=18;" vertex="1" parent="WIyWlLk6GJQsqaUBKTNV-1">
          <mxGeometry x="74" y="115" width="110" height="40" as="geometry" />
        </mxCell>
        <mxCell id="TGFiXmm4ck-HfC6BKN8_-35" value="서버" style="text;html=1;align=center;verticalAlign=middle;resizable=0;points=[];autosize=1;strokeColor=none;fillColor=none;fontSize=18;" vertex="1" parent="WIyWlLk6GJQsqaUBKTNV-1">
          <mxGeometry x="369" y="115" width="60" height="40" as="geometry" />
        </mxCell>
        <mxCell id="TGFiXmm4ck-HfC6BKN8_-36" value="인공지능" style="text;html=1;align=center;verticalAlign=middle;resizable=0;points=[];autosize=1;strokeColor=none;fillColor=none;fontSize=18;" vertex="1" parent="WIyWlLk6GJQsqaUBKTNV-1">
          <mxGeometry x="610" y="115" width="100" height="40" as="geometry" />
        </mxCell>
        <mxCell id="TGFiXmm4ck-HfC6BKN8_-38" value="DB에 저장된&amp;nbsp;&lt;div style=&quot;font-size: 18px;&quot;&gt;이미지 확인&lt;/div&gt;" style="whiteSpace=wrap;html=1;rounded=0;fontSize=18;" vertex="1" parent="WIyWlLk6GJQsqaUBKTNV-1">
          <mxGeometry x="69" y="620" width="120" height="60" as="geometry" />
        </mxCell>
        <mxCell id="TGFiXmm4ck-HfC6BKN8_-41" value="" style="rounded=0;whiteSpace=wrap;html=1;" vertex="1" parent="WIyWlLk6GJQsqaUBKTNV-1">
          <mxGeometry x="570" y="720" width="190" height="210" as="geometry" />
        </mxCell>
        <mxCell id="TGFiXmm4ck-HfC6BKN8_-45" style="edgeStyle=orthogonalEdgeStyle;rounded=0;orthogonalLoop=1;jettySize=auto;html=1;exitX=0.5;exitY=1;exitDx=0;exitDy=0;entryX=0.5;entryY=1;entryDx=0;entryDy=0;exitPerimeter=0;" edge="1" parent="WIyWlLk6GJQsqaUBKTNV-1" source="TGFiXmm4ck-HfC6BKN8_-42" target="TGFiXmm4ck-HfC6BKN8_-38">
          <mxGeometry relative="1" as="geometry">
            <Array as="points">
              <mxPoint x="665" y="950" />
              <mxPoint x="129" y="950" />
            </Array>
          </mxGeometry>
        </mxCell>
        <mxCell id="TGFiXmm4ck-HfC6BKN8_-42" value="" style="shape=cylinder3;whiteSpace=wrap;html=1;boundedLbl=1;backgroundOutline=1;size=15;" vertex="1" parent="WIyWlLk6GJQsqaUBKTNV-1">
          <mxGeometry x="610" y="750" width="110" height="150" as="geometry" />
        </mxCell>
        <mxCell id="TGFiXmm4ck-HfC6BKN8_-43" value="DB" style="text;html=1;align=center;verticalAlign=middle;resizable=0;points=[];autosize=1;strokeColor=none;fillColor=none;fontSize=18;" vertex="1" parent="WIyWlLk6GJQsqaUBKTNV-1">
          <mxGeometry x="634" y="680" width="50" height="40" as="geometry" />
        </mxCell>
        <mxCell id="TGFiXmm4ck-HfC6BKN8_-44" style="edgeStyle=orthogonalEdgeStyle;rounded=0;orthogonalLoop=1;jettySize=auto;html=1;entryX=0;entryY=0.5;entryDx=0;entryDy=0;entryPerimeter=0;" edge="1" parent="WIyWlLk6GJQsqaUBKTNV-1" source="TGFiXmm4ck-HfC6BKN8_-15" target="TGFiXmm4ck-HfC6BKN8_-42">
          <mxGeometry relative="1" as="geometry" />
        </mxCell>
      </root>
    </mxGraphModel>
  </diagram>
</mxfile>
